<svg id="Logo_IGLockup" xmlns="http://www.w3.org/2000/svg" width="101.068" height="48.738" viewBox="0 0 101.068 48.738">
  <g id="Isobar_Good_-_White" data-name="Isobar Good - White" transform="translate(50.534 29.747)">
    <path id="Isobar_Good_-_White-2" data-name="Isobar Good - White" d="M15.758,11.085h-.109a6.466,6.466,0,0,0-2.663-2.663,8.314,8.314,0,0,0-3.749-.761,8.64,8.64,0,0,0-3.967.869,8.531,8.531,0,0,0-2.88,2.337A10.541,10.541,0,0,0,.6,14.291,13.476,13.476,0,0,0,0,18.312,16.464,16.464,0,0,0,.543,22.5a9.781,9.781,0,0,0,1.63,3.478,7.879,7.879,0,0,0,2.88,2.337,9.4,9.4,0,0,0,4.184.869,8.8,8.8,0,0,0,3.749-.815,5.868,5.868,0,0,0,2.717-2.5h.054V28.69a5.923,5.923,0,0,1-1.087,3.8,4.254,4.254,0,0,1-3.641,1.521,5.814,5.814,0,0,1-2.771-.652,3.369,3.369,0,0,1-1.63-2.337H.706a6.249,6.249,0,0,0,1.032,3.152,7.39,7.39,0,0,0,2.228,2.174A10.27,10.27,0,0,0,6.955,37.6a13.747,13.747,0,0,0,3.206.38A14.946,14.946,0,0,0,16.084,37a9.074,9.074,0,0,0,3.369-2.445,7.336,7.336,0,0,0,1.521-3.1,14.562,14.562,0,0,0,.38-2.989V8.205h-5.6Zm-.326,9.889a5.923,5.923,0,0,1-.924,1.9,4.619,4.619,0,0,1-1.576,1.358,4.673,4.673,0,0,1-2.228.489,4.184,4.184,0,0,1-2.282-.6A4.619,4.619,0,0,1,6.955,22.6,6.249,6.249,0,0,1,6.14,20.54,11.791,11.791,0,0,1,5.923,18.2a9.727,9.727,0,0,1,.272-2.337,5.76,5.76,0,0,1,.869-1.9,4.51,4.51,0,0,1,1.521-1.358,4.347,4.347,0,0,1,2.119-.489,4.836,4.836,0,0,1,2.391.543,4.347,4.347,0,0,1,1.576,1.467,6.3,6.3,0,0,1,.815,2.119,12.28,12.28,0,0,1,.272,2.5,7.879,7.879,0,0,1-.326,2.228ZM45.7,10.759a10.052,10.052,0,0,0-3.532-2.282,12.443,12.443,0,0,0-4.619-.815,12.28,12.28,0,0,0-4.564.815,9.835,9.835,0,0,0-5.705,5.868,13.313,13.313,0,0,0-.815,4.673,13.1,13.1,0,0,0,.815,4.673,10.107,10.107,0,0,0,2.228,3.586,9.835,9.835,0,0,0,3.478,2.282,12.552,12.552,0,0,0,4.564.815,12.715,12.715,0,0,0,4.619-.815A9.781,9.781,0,0,0,45.7,27.278a10.161,10.161,0,0,0,2.228-3.586,13.1,13.1,0,0,0,.815-4.673,13.313,13.313,0,0,0-.815-4.673A10.107,10.107,0,0,0,45.7,10.759ZM42.6,21.572a6.738,6.738,0,0,1-.869,2.228,4.51,4.51,0,0,1-1.63,1.576,5,5,0,0,1-2.5.6,4.89,4.89,0,0,1-2.5-.6A4.564,4.564,0,0,1,33.527,23.8a6.738,6.738,0,0,1-.869-2.228,12.661,12.661,0,0,1-.272-2.5,12.987,12.987,0,0,1,.272-2.554,6.52,6.52,0,0,1,.869-2.228A4.782,4.782,0,0,1,35.1,12.715a4.727,4.727,0,0,1,2.5-.6,4.836,4.836,0,0,1,2.5.6,4.727,4.727,0,0,1,1.63,1.576,6.52,6.52,0,0,1,.869,2.228,12.987,12.987,0,0,1,.272,2.554A12.661,12.661,0,0,1,42.6,21.572ZM72.215,10.759a10.052,10.052,0,0,0-3.532-2.282,12.443,12.443,0,0,0-4.619-.815,12.28,12.28,0,0,0-4.564.815,9.835,9.835,0,0,0-5.76,5.868,13.258,13.258,0,0,0-.815,4.673,13.1,13.1,0,0,0,.815,4.673,10.107,10.107,0,0,0,2.228,3.586,9.835,9.835,0,0,0,3.478,2.282,12.552,12.552,0,0,0,4.564.815,12.715,12.715,0,0,0,4.619-.815,9.781,9.781,0,0,0,3.532-2.282,10.161,10.161,0,0,0,2.228-3.586,13.1,13.1,0,0,0,.815-4.673,13.313,13.313,0,0,0-.815-4.673,10.107,10.107,0,0,0-2.228-3.586Zm-3.1,10.813a6.738,6.738,0,0,1-.869,2.228,4.51,4.51,0,0,1-1.63,1.576,5,5,0,0,1-2.5.6,4.89,4.89,0,0,1-2.5-.6A4.564,4.564,0,0,1,60.043,23.8a6.738,6.738,0,0,1-.869-2.228,12.661,12.661,0,0,1-.272-2.5,12.987,12.987,0,0,1,.272-2.554,6.521,6.521,0,0,1,.869-2.228,4.564,4.564,0,0,1,4.075-2.174,4.89,4.89,0,0,1,2.5.6,4.727,4.727,0,0,1,1.63,1.576,6.52,6.52,0,0,1,.869,2.228,12.987,12.987,0,0,1,.272,2.554,12.662,12.662,0,0,1-.326,2.5ZM95.146,0V10.868h-.054a6.358,6.358,0,0,0-2.717-2.391,8.422,8.422,0,0,0-3.641-.815,8.8,8.8,0,0,0-4.184.924,8.911,8.911,0,0,0-2.989,2.5,10.922,10.922,0,0,0-1.793,3.586,14.617,14.617,0,0,0-.6,4.184,15.54,15.54,0,0,0,.6,4.347A11.574,11.574,0,0,0,81.561,26.9,8.531,8.531,0,0,0,84.6,29.451a9.183,9.183,0,0,0,4.238.924,9.074,9.074,0,0,0,3.8-.761,6.086,6.086,0,0,0,2.717-2.5h.109v2.771h5.6V0Zm-.054,21.572a7.01,7.01,0,0,1-.815,2.228A4.456,4.456,0,0,1,92.7,25.376a4.673,4.673,0,0,1-2.445.6,4.4,4.4,0,0,1-2.337-.6,5.216,5.216,0,0,1-1.63-1.576,6.846,6.846,0,0,1-.924-2.228,11.03,11.03,0,0,1-.272-2.5,11.9,11.9,0,0,1,.272-2.554,6.847,6.847,0,0,1,.869-2.174,4.619,4.619,0,0,1,1.576-1.521,4.782,4.782,0,0,1,2.445-.6,4.564,4.564,0,0,1,2.391.6,4.836,4.836,0,0,1,1.576,1.521,6.3,6.3,0,0,1,.869,2.174,12.879,12.879,0,0,1,.272,2.554A13.205,13.205,0,0,1,95.091,21.572Z" transform="translate(-50.534 -18.991)" fill="#fff"/>
  </g>
  <g id="Isobar_-_White" data-name="Isobar - White" transform="translate(50.584 5.547)">
    <g id="Isobar_-_White-2" data-name="Isobar - White" transform="translate(-19.133 -5.547)">
      <path id="Path_776" data-name="Path 776" d="M.995,3.989a.995.995,0,1,1,.995-.995.995.995,0,0,1-.995.995" transform="translate(0 -1.781)" fill="#fff"/>
      <path id="Path_777" data-name="Path 777" d="M316.2,35.87V28.164h1.76V29.18A2.09,2.09,0,0,1,319.905,28v1.869c-.874.055-1.836.317-1.869,1.64h0V35.87Z" transform="translate(-281.639 -24.94)" fill="#fff"/>
      <path id="Path_778" data-name="Path 778" d="M94.844,30.238a2.241,2.241,0,1,0,2.241,2.241,2.241,2.241,0,0,0-2.241-2.241m-.055,6.241a3.989,3.989,0,1,1,3.989-4,3.989,3.989,0,0,1-3.989,4" transform="translate(-80.876 -25.385)" fill="#fff"/>
      <path id="Path_779" data-name="Path 779" d="M173.183,4.864a2.241,2.241,0,0,0-1.836.962l-.022.022v2.5l.022.033a2.241,2.241,0,1,0,1.836-3.519m.219,6.23a2.905,2.905,0,0,1-2.2-.82h.022l-.044.678H169.5V1.814L171.325,0V3.9h0a3.028,3.028,0,0,1,2.12-.787h.022A3.913,3.913,0,0,1,177.184,7.1a4.022,4.022,0,0,1-1.17,2.82,3.641,3.641,0,0,1-2.569,1.17Z" transform="translate(-150.974)" fill="#fff"/>
      <path id="Path_780" data-name="Path 780" d="M246.118,32.916c-1.159,0-1.749.361-1.749,1.06s.525,1.006,1.344,1.006c1.246,0,2.044-.656,2.044-1.661v-.4Zm-.809,3.5c-1.65,0-2.809-.984-2.809-2.383,0-1.585,1.235-2.426,3.574-2.426h1.683V31.32a1.491,1.491,0,0,0-1.629-1.355,2.422,2.422,0,0,0-1.727.59l-.984-.984a2.809,2.809,0,0,1,.372-.339,3.976,3.976,0,0,1,2.4-.732c2.022,0,3.323,1.115,3.323,2.831v5.006H247.79v-.754l-.175.186a2.884,2.884,0,0,1-2.306.656" transform="translate(-215.995 -25.385)" fill="#fff"/>
      <rect id="Rectangle_132" data-name="Rectangle 132" width="1.793" height="7.699" transform="translate(0.109 3.235)" fill="#fff"/>
      <path id="Path_781" data-name="Path 781" d="M24.382,34.06a3.894,3.894,0,0,0,2.525.787c1.049,0,1.738-.361,1.738-.885s-.525-.8-1.978-.929c-1.913-.164-3.181-.7-3.181-2.328,0-1.4,1.355-2.306,3.213-2.306a5.192,5.192,0,0,1,3.345,1.18l.033.033-1.049,1.082a3.886,3.886,0,0,0-2.394-.754c-.951,0-1.508.284-1.508.71s.426.678,1.727.809c2,.2,3.432.842,3.432,2.481s-1.454,2.448-3.4,2.448A5.233,5.233,0,0,1,23.322,35.2l-.022-.022Z" transform="translate(-20.753 -25.294)" fill="#fff"/>
    </g>
  </g>
</svg>
